<svg width="71" height="65" viewBox="0 0 71 65" fill="none" xmlns="http://www.w3.org/2000/svg">
<path d="M70.3761 31.5914H45.4595V32.6444H70.3761V31.5914Z" fill="#002A6E"/>
<path d="M70.3761 33.8291H45.4595V34.8821H70.3761V33.8291Z" fill="#002A6E"/>
<path d="M70.3761 36.1984H45.4595V37.2515H70.3761V36.1984Z" fill="#002A6E"/>
<path d="M70.2437 42.9116H16.832V43.9646H70.2437V42.9116Z" fill="#002A6E"/>
<path d="M70.2437 40.6739H16.832V41.7269H70.2437V40.6739Z" fill="#002A6E"/>
<path d="M70.3761 38.4362H45.4595V39.4892H70.3761V38.4362Z" fill="#002A6E"/>
<path d="M0 64.1041V0H45.5921V1.97446H1.98803V64.1041H0Z" fill="#002A6E"/>
<path d="M13.386 20.5344H32.3385L30.7481 21.5874H14.8439L13.386 20.5344Z" fill="#002A6E"/>
<path d="M16.5669 22.7721H29.1577L27.6998 23.8251H17.8922L16.5669 22.7721Z" fill="#002A6E"/>
<path d="M17.4946 25.0098H28.0974L28.495 26.0629H17.2295L17.4946 25.0098Z" fill="#002A6E"/>
<path d="M16.8319 27.2476H28.8926L29.1577 28.4322H24.2539L22.796 27.3792L21.3381 28.4322H16.4343L16.8319 27.2476Z" fill="#002A6E"/>
<path d="M25.9769 29.6169H29.6879L30.0855 30.6699H27.5674L25.9769 29.6169ZM16.0368 29.6169H19.7478L18.2899 30.6699H15.7717L16.0368 29.6169Z" fill="#002A6E"/>
<path d="M29.0253 31.8546H30.3506L30.7482 32.9077H30.6157L29.0253 31.8546ZM15.2416 31.8546H16.567L15.1091 32.9077H14.9766L15.2416 31.8546Z" fill="#002A6E"/>
<path d="M22.6635 9.21417H22.9286L23.3262 10.2672H22.3984L22.6635 9.21417Z" fill="#002A6E"/>
<path d="M22.0009 11.4518H23.7238L23.9889 12.5049H21.6033L22.0009 11.4518Z" fill="#002A6E"/>
<path d="M21.2055 13.6896H24.3863L24.7839 14.8743H20.9404L21.2055 13.6896Z" fill="#002A6E"/>
<path d="M20.5429 15.9273H25.1816L25.4467 17.112H20.1453L20.5429 15.9273Z" fill="#002A6E"/>
<path d="M10.2053 18.2966H35.387L33.9291 19.3497H11.7957L10.2053 18.2966Z" fill="#002A6E"/>
<path d="M70.3761 11.3203H45.4595V12.3733H70.3761V11.3203Z" fill="#E80004"/>
<path d="M70.3761 13.558H45.4595V14.611H70.3761V13.558Z" fill="#E80004"/>
<path d="M70.3761 15.7957H45.4595V16.8487H70.3761V15.7957Z" fill="#E80004"/>
<path d="M45.4595 18.0334H70.3761V19.2181H45.4595V18.4283V18.0334Z" fill="#E80004"/>
<path d="M70.3761 20.4028H45.4595V21.4558H70.3761V20.4028Z" fill="#E80004"/>
<path d="M70.3761 22.6405H45.4595V23.6935H70.3761V22.6405Z" fill="#E80004"/>
<path d="M70.3761 24.8782H45.4595V25.9312H70.3761V24.8782Z" fill="#E80004"/>
<path d="M70.2437 63.1827H16.832V64.2357H70.2437V63.1827Z" fill="#E80004"/>
<path d="M70.2437 60.945H16.832V61.9981H70.2437V60.945Z" fill="#E80004"/>
<path d="M70.2437 58.7073H16.832V59.7603H70.2437V58.7073Z" fill="#E80004"/>
<path d="M70.2437 56.4695H16.832V57.5226H70.2437V56.4695Z" fill="#E80004"/>
<path d="M70.2437 54.2318H16.832V55.2849H70.2437V54.2318Z" fill="#E80004"/>
<path d="M70.2437 51.9941H16.832V53.0471H70.2437V51.9941Z" fill="#E80004"/>
<path d="M70.2437 49.6248H16.832V50.6778H70.2437V49.6248Z" fill="#E80004"/>
<path d="M31.941 47.387H16.832V48.4401H31.941V47.387Z" fill="#E80004"/>
<path d="M31.941 45.1493H16.832V46.2023H31.941V45.1493Z" fill="#E80004"/>
</svg>
