<svg width="807" height="398" viewBox="0 0 807 398" fill="none" xmlns="http://www.w3.org/2000/svg">
<path d="M135 391.456H146.274V389.338H137.438V385.102H145.055V382.984H137.438V379.051H145.969V376.631H135V391.456Z" fill="#4D4D4D"/>
<path d="M163.338 391.456H165.775V380.866L174.003 391.456H176.44V376.631H173.698V386.917L165.775 376.631H163.338V391.456Z" fill="#4D4D4D"/>
<path d="M201.121 391.758C203.864 391.758 205.997 390.851 207.215 389.338V382.984H200.817V385.405H204.778V388.43C203.864 389.035 202.645 389.64 201.121 389.64C198.074 389.64 195.941 387.523 195.941 384.497C195.941 381.774 198.074 379.354 200.817 379.354C202.645 379.354 203.864 379.959 205.083 380.866L206.606 379.051C205.083 377.841 203.559 376.933 200.817 376.933C196.246 376.933 193.199 380.564 193.199 384.497C193.504 388.43 196.551 391.758 201.121 391.758Z" fill="#4D4D4D"/>
<path d="M227.936 376.631H225.193V391.456H227.936V376.631Z" fill="#4D4D4D"/>
<path d="M245.913 391.456H248.351V380.866L256.578 391.456H258.711V376.631H256.273V386.917L248.351 376.631H245.913V391.456Z" fill="#4D4D4D"/>
<path d="M276.689 391.456H287.963V389.338H279.431V385.102H286.744V382.984H279.431V379.051H287.658V376.631H276.689V391.456Z" fill="#4D4D4D"/>
<path d="M305.026 391.456H316.301V389.338H307.769V385.102H315.082V382.984H307.769V379.051H315.996V376.631H305.026V391.456Z" fill="#4D4D4D"/>
<path d="M335.802 384.195V379.354H339.763C341.591 379.354 342.81 380.261 342.81 381.774C342.81 383.287 341.591 384.195 339.763 384.195H335.802ZM333.364 391.456H336.106V386.312H339.458L343.115 391.456H346.162L342.201 385.707C344.334 385.102 345.857 383.589 345.857 381.169C345.857 379.959 345.552 378.749 344.638 377.841C343.724 376.933 342.201 376.328 340.372 376.328H333.669V391.456H333.364Z" fill="#4D4D4D"/>
<path d="M368.101 391.758C371.148 391.758 373.281 390.246 373.281 387.22C373.281 384.8 371.757 383.589 368.405 382.984C365.663 382.379 364.749 381.774 364.749 380.564C364.749 379.656 365.663 378.748 367.187 378.748C368.405 378.748 369.929 379.354 371.148 380.261L372.671 378.446C371.148 377.236 369.32 376.631 367.187 376.631C364.14 376.631 362.007 378.446 362.007 380.866C362.007 383.589 363.835 384.497 366.882 385.405C369.624 386.01 370.234 386.615 370.234 387.523C370.234 388.733 369.32 389.338 367.491 389.338C365.663 389.338 364.14 388.733 362.921 387.523L361.397 389.338C363.53 390.851 365.663 391.758 368.101 391.758Z" fill="#4D4D4D"/>
<path d="M434.222 384.497V379.051H437.269C439.097 379.051 440.621 379.959 440.621 381.774C440.621 383.287 439.402 384.497 437.269 384.497H434.222ZM431.785 391.456H434.527V386.615H437.574C440.926 386.615 443.668 384.8 443.668 381.471C443.668 378.446 441.535 376.631 437.879 376.631H432.089V391.456H431.785Z" fill="#4D4D4D"/>
<path d="M462.56 384.195V379.354H466.521C468.349 379.354 469.568 380.261 469.568 381.774C469.568 383.287 468.349 384.195 466.521 384.195H462.56ZM459.818 391.456H462.56V386.312H465.912L469.568 391.456H472.615L468.654 385.707C470.787 385.102 472.31 383.589 472.31 381.169C472.31 379.959 472.006 378.749 471.092 377.841C470.178 376.933 468.654 376.328 466.826 376.328H460.122V391.456H459.818Z" fill="#4D4D4D"/>
<path d="M496.687 389.338C493.64 389.338 491.507 386.917 491.507 384.194C491.507 381.169 493.64 379.051 496.382 379.051C499.429 379.051 501.562 381.471 501.562 384.194C501.562 386.917 499.429 389.338 496.687 389.338ZM496.382 391.758C500.953 391.758 504.305 388.128 504.305 384.194C504.305 379.959 501.258 376.631 496.382 376.631C491.812 376.631 488.46 380.261 488.46 384.194C488.765 388.43 491.812 391.758 496.382 391.758Z" fill="#4D4D4D"/>
<path d="M525.634 391.758H527.767L534.166 376.631H531.119L526.853 388.128L522.282 376.631H519.235L525.634 391.758Z" fill="#4D4D4D"/>
<path d="M553.667 376.631H550.925V391.456H553.667V376.631Z" fill="#4D4D4D"/>
<path d="M574.083 389.035V379.051H577.13C580.177 379.051 582.31 381.169 582.31 384.195C582.31 387.22 580.177 389.035 577.13 389.035H574.083ZM571.645 391.456H577.13C581.7 391.456 585.052 388.128 585.052 384.195C585.052 379.959 581.7 376.933 577.13 376.933H571.645V391.456Z" fill="#4D4D4D"/>
<path d="M602.116 391.456H613.39V389.338H604.858V385.102H612.171V382.984H604.858V379.051H613.39V376.631H602.116V391.456Z" fill="#4D4D4D"/>
<path d="M633.196 384.195V379.354H637.157C638.985 379.354 640.204 380.261 640.204 381.774C640.204 383.287 638.985 384.195 637.157 384.195H633.196ZM630.453 391.456H633.196V386.312H636.548L640.204 391.456H643.251L639.29 385.707C641.423 385.102 642.946 383.589 642.946 381.169C642.946 379.959 642.642 378.749 641.728 377.841C640.813 376.933 639.29 376.328 637.462 376.328H630.758V391.456H630.453Z" fill="#4D4D4D"/>
<path d="M665.19 391.758C668.237 391.758 670.37 390.246 670.37 387.22C670.37 384.8 668.846 383.589 665.495 382.984C662.752 382.379 661.838 381.774 661.838 380.564C661.838 379.656 662.752 378.748 664.276 378.748C665.495 378.748 667.018 379.354 668.237 380.261L669.761 378.446C668.237 377.236 666.409 376.631 664.276 376.631C661.229 376.631 659.096 378.446 659.096 380.866C659.096 383.589 660.924 384.497 663.971 385.405C666.714 386.01 667.323 386.615 667.323 387.523C667.323 388.733 666.409 389.338 664.581 389.338C662.752 389.338 661.229 388.733 660.01 387.523L658.486 389.338C660.924 390.851 663.057 391.758 665.19 391.758Z" fill="#4D4D4D"/>
<path d="M400.095 373V397.204" stroke="#4D4D4D" stroke-width="0.5" stroke-miterlimit="10"/>
<path d="M10.36 317.44V307.758H15.2353C18.8918 307.758 21.3295 309.574 21.3295 312.599C21.3295 315.625 19.1965 317.44 15.54 317.44H10.36ZM0 336.198H10.36V325.609H15.54C24.6812 325.609 31.6895 321.071 31.6895 312.297C31.6895 304.128 25.5954 299.287 16.1495 299.287H0V336.198Z" fill="#002A6E"/>
<path d="M54.2378 316.835V308.061H60.9414C64.2932 308.061 66.4261 309.574 66.4261 312.599C66.4261 315.322 64.2932 317.137 60.9414 317.137H54.2378V316.835ZM43.8778 336.198H54.2378V325.004H58.8084L66.4261 336.198H78.3097L69.4732 323.189C74.0438 321.373 77.0909 317.44 77.0909 311.692C77.0909 308.061 75.872 305.035 73.7391 302.917C71.3014 300.497 67.3402 298.984 61.5508 298.984H43.8778V336.198Z" fill="#002A6E"/>
<path d="M109.085 327.727C103.296 327.727 99.6391 323.189 99.6391 317.743C99.6391 312.297 103.296 307.758 109.085 307.758C114.874 307.758 118.836 312.297 118.836 317.743C118.531 322.886 114.874 327.727 109.085 327.727ZM109.085 336.804C120.664 336.804 129.196 328.029 129.196 317.44C129.196 306.851 120.664 298.379 109.085 298.379C97.5062 298.379 88.9744 307.153 88.9744 317.743C88.9744 328.332 97.5062 336.804 109.085 336.804Z" fill="#002A6E"/>
<path d="M149.002 336.198H177.339V328.937H157.229V321.071H174.597V313.809H157.229V306.246H177.035V298.984H149.002V336.198Z" fill="#002A6E"/>
<path d="M193.489 336.198H201.411V312.599L219.389 336.198H226.397V298.984H218.475V321.978L200.802 298.984H193.489V336.198Z" fill="#002A6E"/>
<path d="M262.048 336.804C268.751 336.804 274.236 334.081 277.893 331.055V314.717H261.743V321.676H269.97V327.122C267.837 328.635 265.095 329.24 262.353 329.24C255.649 329.24 251.078 324.399 251.078 317.44C251.078 311.086 255.954 305.943 261.743 305.943C266.009 305.943 268.751 307.456 271.494 309.574L276.674 303.523C272.713 300.194 268.751 298.379 262.048 298.379C250.774 298.379 242.547 307.153 242.547 317.44C242.547 328.635 250.469 336.804 262.048 336.804Z" fill="#002A6E"/>
<path d="M303.183 298.984H294.956V336.198H303.183V298.984Z" fill="#002A6E"/>
<path d="M321.161 336.198H329.388V312.599L347.366 336.198H354.374V298.984H346.147V321.978L328.779 298.984H321.161V336.198Z" fill="#002A6E"/>
<path d="M372.047 336.198H400.385V328.937H380.274V321.071H397.642V313.809H380.274V306.246H400.08V298.984H372.047V336.198Z" fill="#002A6E"/>
<path d="M416.534 336.198H444.872V328.937H424.457V321.071H442.13V313.809H424.457V306.246H444.567V298.984H416.534V336.198Z" fill="#002A6E"/>
<path d="M468.944 317.138V306.548H477.171C481.132 306.548 483.57 308.363 483.57 311.994C483.57 315.02 481.132 317.138 477.171 317.138H468.944ZM460.717 336.198H468.944V324.399H475.343L483.265 336.198H493.016L483.874 322.886C488.75 321.071 491.797 317.44 491.797 311.389C491.797 307.758 490.578 305.035 488.445 302.918C486.007 300.497 482.351 299.287 477.476 299.287H460.412V336.198H460.717Z" fill="#002A6E"/>
<path d="M521.353 336.804C529.276 336.804 535.065 332.568 535.065 325.307C535.065 318.953 530.799 316.23 523.182 314.112C516.783 312.599 515.259 311.692 515.259 309.271C515.259 307.456 516.783 305.943 520.135 305.943C523.182 305.943 526.533 307.456 529.885 309.574L534.151 303.523C530.495 300.497 525.619 298.682 520.135 298.682C512.517 298.682 507.032 303.22 507.032 309.876C507.032 317.138 511.908 319.255 519.525 321.071C525.619 322.584 527.143 323.794 527.143 325.912C527.143 328.03 525.01 329.542 521.658 329.542C517.392 329.542 513.736 327.727 510.384 325.004L505.509 330.752C510.079 334.686 515.564 336.804 521.353 336.804Z" fill="#002A6E"/>
<path d="M594.115 337.122C600.818 337.122 605.998 334.399 609.655 331.373V315.943H593.81V321.692H603.256V328.65C600.818 330.466 597.771 331.373 594.115 331.373C586.497 331.373 581.317 325.625 581.317 318.061C581.317 311.102 586.497 305.051 593.505 305.051C598.381 305.051 601.123 306.564 603.865 308.984L608.131 304.143C604.17 300.815 600.209 299 593.81 299C582.536 299 574.614 307.774 574.614 318.061C574.614 328.953 582.536 337.122 594.115 337.122Z" fill="#002A6E"/>
<path d="M633.422 317.758V305.354H642.868C647.743 305.354 650.486 307.472 650.486 311.405C650.486 315.035 647.438 317.456 642.868 317.456H633.422V317.758ZM627.023 336.517H633.727V323.507H641.954L651.095 336.517H658.713L648.657 322.599C653.837 321.086 657.494 317.456 657.494 311.405C657.494 308.077 656.275 305.354 654.447 303.538C652.009 301.118 648.353 299.908 643.782 299.908H627.023V336.517Z" fill="#002A6E"/>
<path d="M691.926 331.373C684.613 331.373 679.128 325.322 679.128 318.061C679.128 310.8 684.308 305.051 691.621 305.051C698.934 305.051 704.419 311.102 704.419 318.363C704.723 325.322 699.543 331.373 691.926 331.373ZM691.926 337.122C703.504 337.122 711.427 328.348 711.427 318.061C711.427 307.774 703.504 299 691.926 299C680.347 299 672.424 307.774 672.424 318.061C672.424 328.65 680.347 337.122 691.926 337.122Z" fill="#002A6E"/>
<path d="M743.421 337.122C753.172 337.122 759.571 331.676 759.571 320.481V299.302H752.867V320.784C752.867 327.743 749.211 331.071 743.421 331.071C737.632 331.071 733.975 327.44 733.975 320.481V299.302H727.272V320.784C727.576 331.676 733.67 337.122 743.421 337.122Z" fill="#002A6E"/>
<path d="M783.642 318.666V305.354H791.26C796.135 305.354 799.182 307.774 799.182 312.01C799.182 315.943 796.135 318.666 791.26 318.666H783.642ZM777.244 336.517H783.947V324.717H791.26C799.487 324.717 806.191 320.481 806.191 312.01C806.191 304.446 800.706 299.605 791.869 299.605H777.244V336.517Z" fill="#002A6E"/>
<path d="M560.597 328.045H552.065V336.517H560.597V328.045Z" fill="#002A6E"/>
<path d="M528 112.196H439.488V115.936H528V112.196Z" fill="#002A6E"/>
<path d="M528 120.143H439.488V123.883H528V120.143Z" fill="#002A6E"/>
<path d="M528 128.558H439.488V132.298H528V128.558Z" fill="#002A6E"/>
<path d="M527.529 152.4H337.793V156.139H527.529V152.4Z" fill="#002A6E"/>
<path d="M527.529 144.453H337.793V148.192H527.529V144.453Z" fill="#002A6E"/>
<path d="M528 136.505H439.488V140.245H528V136.505Z" fill="#002A6E"/>
<path d="M278 227.665V0H439.959V7.01225H285.062V227.665H278Z" fill="#002A6E"/>
<path d="M325.552 72.9276H392.878L387.228 76.6675H330.731L325.552 72.9276Z" fill="#002A6E"/>
<path d="M336.851 80.8746H381.578L376.399 84.6145H341.559L336.851 80.8746Z" fill="#002A6E"/>
<path d="M340.147 88.8218H377.812L379.224 92.5616H339.205L340.147 88.8218Z" fill="#002A6E"/>
<path d="M337.793 96.769H380.637L381.578 100.976H364.158L358.979 97.2365L353.8 100.976H336.38L337.793 96.769Z" fill="#002A6E"/>
<path d="M370.279 105.184H383.461L384.874 108.924H375.928L370.279 105.184ZM334.968 105.184H348.151L342.972 108.924H334.026L334.968 105.184Z" fill="#002A6E"/>
<path d="M381.107 113.131H385.815L387.228 116.871H386.757L381.107 113.131ZM332.143 113.131H336.851L331.672 116.871H331.202L332.143 113.131Z" fill="#002A6E"/>
<path d="M358.509 32.724H359.45L360.863 36.4639H357.567L358.509 32.724Z" fill="#002A6E"/>
<path d="M356.154 40.671H362.275L363.217 44.4109H354.742L356.154 40.671Z" fill="#002A6E"/>
<path d="M353.33 48.6183H364.629L366.042 52.8256H352.388L353.33 48.6183Z" fill="#002A6E"/>
<path d="M350.976 56.5654H367.454L368.396 60.7728H349.563L350.976 56.5654Z" fill="#002A6E"/>
<path d="M314.252 64.9802H403.706L398.527 68.7201H319.902L314.252 64.9802Z" fill="#002A6E"/>
<path d="M528 40.2036H439.488V43.9435H528V40.2036Z" fill="#E80004"/>
<path d="M528 48.1508H439.488V51.8906H528V48.1508Z" fill="#E80004"/>
<path d="M528 56.0981H439.488V59.838H528V56.0981Z" fill="#E80004"/>
<path d="M439.488 64.0453H528V68.2526H439.488V65.4477V64.0453Z" fill="#E80004"/>
<path d="M528 72.46H439.488V76.1998H528V72.46Z" fill="#E80004"/>
<path d="M528 80.4072H439.488V84.1471H528V80.4072Z" fill="#E80004"/>
<path d="M528 88.3544H439.488V92.0942H528V88.3544Z" fill="#E80004"/>
<path d="M527.529 224.392H337.793V228.132H527.529V224.392Z" fill="#E80004"/>
<path d="M527.529 216.445H337.793V220.185H527.529V216.445Z" fill="#E80004"/>
<path d="M527.529 208.498H337.793V212.237H527.529V208.498Z" fill="#E80004"/>
<path d="M527.529 200.55H337.793V204.29H527.529V200.55Z" fill="#E80004"/>
<path d="M527.529 192.603H337.793V196.343H527.529V192.603Z" fill="#E80004"/>
<path d="M527.529 184.656H337.793V188.396H527.529V184.656Z" fill="#E80004"/>
<path d="M527.529 176.241H337.793V179.981H527.529V176.241Z" fill="#E80004"/>
<path d="M391.465 168.294H337.793V172.034H391.465V168.294Z" fill="#E80004"/>
<path d="M391.465 160.347H337.793V164.087H391.465V160.347Z" fill="#E80004"/>
</svg>
